<svg xmlns="http://www.w3.org/2000/svg" height="512pt" version="1.1" viewBox="0 0 512 512" width="512pt">
<g id="surface1">
<path d="M 512 256 C 512 397.386719 397.386719 512 256 512 C 114.613281 512 0 397.386719 0 256 C 0 114.613281 114.613281 0 256 0 C 397.386719 0 512 114.613281 512 256 Z M 512 256 " style=" stroke:none;fill-rule:nonzero;fill:rgb(99.607843%,41.568627%,8.627451%);fill-opacity:1;" />
<path d="M 339.621094 498.015625 C 439.941406 463.359375 512 368.101562 512 256 C 512 253.890625 511.972656 251.785156 511.921875 249.6875 L 365.5625 103.335938 L 134.066406 262 L 205.886719 333.820312 L 187.246094 345.640625 Z M 339.621094 498.015625 " style=" stroke:none;fill-rule:nonzero;fill:rgb(94.901961%,27.058824%,0%);fill-opacity:1;" />
<path d="M 294.5 373.644531 L 294.5 348 L 217.5 348 L 217.5 373.644531 C 217.5 385.265625 210.230469 395.648438 199.3125 399.625 L 80.914062 442.742188 C 126.699219 485.6875 188.273438 512 256 512 C 323.726562 512 385.300781 485.6875 431.085938 442.742188 L 312.6875 399.625 C 301.769531 395.648438 294.5 385.265625 294.5 373.644531 Z M 294.5 373.644531 " style=" stroke:none;fill-rule:nonzero;fill:rgb(100%,74.509804%,66.666667%);fill-opacity:1;" />
<path d="M 431.085938 442.742188 L 312.6875 399.625 C 301.769531 395.648438 294.5 385.265625 294.5 373.644531 L 294.5 348 L 255.570312 348 L 255.570312 511.996094 C 255.714844 511.996094 255.855469 512 256 512 C 323.726562 512 385.300781 485.6875 431.085938 442.742188 Z M 431.085938 442.742188 " style=" stroke:none;fill-rule:nonzero;fill:rgb(98.039216%,65.098039%,55.686275%);fill-opacity:1;" />
<path d="M 386.402344 239.902344 C 386.402344 258.167969 371.597656 272.976562 353.332031 272.976562 C 335.070312 272.976562 320.261719 258.167969 320.261719 239.902344 C 320.261719 221.640625 335.070312 206.832031 353.332031 206.832031 C 371.597656 206.832031 386.402344 221.640625 386.402344 239.902344 Z M 386.402344 239.902344 " style=" stroke:none;fill-rule:nonzero;fill:rgb(100%,74.509804%,66.666667%);fill-opacity:1;" />
<path d="M 191.738281 239.902344 C 191.738281 258.167969 176.929688 272.976562 158.667969 272.976562 C 140.402344 272.976562 125.597656 258.167969 125.597656 239.902344 C 125.597656 221.640625 140.402344 206.832031 158.667969 206.832031 C 176.929688 206.832031 191.738281 221.640625 191.738281 239.902344 Z M 191.738281 239.902344 " style=" stroke:none;fill-rule:nonzero;fill:rgb(100%,74.509804%,66.666667%);fill-opacity:1;" />
<path d="M 300.03125 363.714844 L 277.949219 375.058594 C 264.171875 382.136719 247.828125 382.136719 234.050781 375.058594 L 211.96875 363.714844 C 179.242188 346.902344 158.667969 313.203125 158.667969 276.410156 L 158.667969 190.335938 C 158.667969 136.578125 202.242188 93 256 93 C 309.757812 93 353.332031 136.578125 353.332031 190.332031 L 353.332031 276.410156 C 353.332031 313.203125 332.757812 346.902344 300.03125 363.714844 Z M 300.03125 363.714844 " style=" stroke:none;fill-rule:nonzero;fill:rgb(100%,80.392157%,74.509804%);fill-opacity:1;" />
<path d="M 256 93 C 255.855469 93 255.714844 93.003906 255.570312 93.003906 L 255.570312 380.351562 C 263.242188 380.421875 270.929688 378.664062 277.949219 375.058594 L 300.03125 363.714844 C 332.757812 346.902344 353.332031 313.203125 353.332031 276.410156 L 353.332031 190.332031 C 353.332031 136.578125 309.757812 93 256 93 Z M 256 93 " style=" stroke:none;fill-rule:nonzero;fill:rgb(100%,74.509804%,66.666667%);fill-opacity:1;" />
<path d="M 130 81.667969 L 130 167.167969 C 130 183.824219 137.128906 198.816406 148.5 209.265625 L 148.5 257.5 C 148.5 268.546875 157.453125 277.5 168.5 277.5 L 168.5 221.199219 C 174.351562 223.21875 180.628906 224.332031 187.167969 224.332031 L 238.5 224.332031 C 270.070312 224.332031 295.667969 198.738281 295.667969 167.164062 L 295.667969 91.664062 C 295.667969 86.144531 291.191406 81.664062 285.667969 81.664062 L 130 81.664062 Z M 130 81.667969 " style=" stroke:none;fill-rule:nonzero;fill:rgb(25.490196%,28.627451%,32.156863%);fill-opacity:1;" />
<path d="M 314.257812 81.667969 L 304.167969 81.667969 C 300.082031 81.667969 296.523438 83.867188 294.574219 87.136719 C 292.921875 83.894531 289.558594 81.667969 285.667969 81.667969 L 255.570312 81.667969 L 255.570312 221.738281 C 273.699219 216.074219 287.945312 201.628906 293.332031 183.382812 C 296.042969 206.441406 315.640625 224.335938 339.425781 224.335938 C 340.800781 224.335938 342.15625 224.261719 343.5 224.144531 L 343.5 277.5 C 354.546875 277.5 363.5 268.546875 363.5 257.5 L 363.5 217.613281 C 376.902344 209.46875 385.851562 194.734375 385.851562 177.90625 L 385.851562 153.257812 C 385.851562 113.71875 353.800781 81.667969 314.257812 81.667969 Z M 314.257812 81.667969 " style=" stroke:none;fill-rule:nonzero;fill:rgb(20%,22.352941%,25.098039%);fill-opacity:1;" />
<path d="M 333 403 L 255.667969 440.332031 L 179 403 L 77.882812 439.851562 C 123.960938 484.503906 186.765625 512 256 512 C 324.3125 512 386.371094 485.238281 432.277344 441.632812 Z M 333 403 " style=" stroke:none;fill-rule:nonzero;fill:rgb(78.431373%,100%,98.039216%);fill-opacity:1;" />
<path d="M 256 512 C 324.3125 512 386.371094 485.238281 432.277344 441.632812 L 333 403 L 255.667969 440.332031 Z M 256 512 " style=" stroke:none;fill-rule:nonzero;fill:rgb(60.784314%,96.078431%,94.117647%);fill-opacity:1;" />
<path d="M 272.082031 483.167969 L 239.917969 483.167969 L 229.917969 441 L 282.082031 441 Z M 272.082031 483.167969 " style=" stroke:none;fill-rule:nonzero;fill:rgb(29.019608%,47.843137%,100%);fill-opacity:1;" />
<path d="M 236.121094 511.230469 C 242.683594 511.738281 249.308594 512 256 512 C 262.691406 512 269.316406 511.734375 275.878906 511.230469 L 272.082031 483.164062 L 239.914062 483.164062 Z M 236.121094 511.230469 " style=" stroke:none;fill-rule:nonzero;fill:rgb(15.686275%,39.215686%,94.117647%);fill-opacity:1;" />
<path d="M 310.332031 391.667969 L 256.332031 440.332031 L 283.332031 477.667969 L 333 403 Z M 310.332031 391.667969 " style=" stroke:none;fill-rule:nonzero;fill:rgb(91.372549%,92.941176%,96.078431%);fill-opacity:1;" />
<path d="M 201.667969 391.667969 L 255.667969 440.332031 L 228.667969 477.667969 L 179 403 Z M 201.667969 391.667969 " style=" stroke:none;fill-rule:nonzero;fill:rgb(100%,100%,100%);fill-opacity:1;" />
<path d="M 433.1875 440.761719 L 333 403 L 297.941406 508.5625 C 349.992188 499.980469 396.746094 475.714844 433.1875 440.761719 Z M 433.1875 440.761719 " style=" stroke:none;fill-rule:nonzero;fill:rgb(15.294118%,28.235294%,56.078431%);fill-opacity:1;" />
<path d="M 297.941406 508.5625 C 311.054688 506.398438 323.832031 503.246094 336.191406 499.171875 L 333 483.164062 L 358.464844 475.5 L 358.464844 412.597656 L 333 403 Z M 297.941406 508.5625 " style=" stroke:none;fill-rule:nonzero;fill:rgb(7.058824%,14.509804%,29.803922%);fill-opacity:1;" />
<path d="M 77.882812 439.851562 L 179 403 L 214.058594 508.5625 C 162.007812 499.980469 114.875 475.625 77.882812 439.851562 Z M 77.882812 439.851562 " style=" stroke:none;fill-rule:nonzero;fill:rgb(15.294118%,28.235294%,56.078431%);fill-opacity:1;" />
<path d="M 214.058594 508.5625 C 200.945312 506.398438 188.167969 503.246094 175.808594 499.171875 L 179 483.164062 L 153.535156 475.5 L 153.535156 412.597656 L 179 403 Z M 214.058594 508.5625 " style=" stroke:none;fill-rule:nonzero;fill:rgb(10.588235%,23.137255%,41.960784%);fill-opacity:1;" />
</g>
</svg>